<?xml version="1.0" encoding="utf-8"?>
<!-- Generator: Adobe Illustrator 16.0.4, SVG Export Plug-In . SVG Version: 6.00 Build 0)  -->
<!DOCTYPE svg PUBLIC "-//W3C//DTD SVG 1.1//EN" "http://www.w3.org/Graphics/SVG/1.1/DTD/svg11.dtd">
<svg version="1.1" id="Layer_1" xmlns="http://www.w3.org/2000/svg" xmlns:xlink="http://www.w3.org/1999/xlink" x="0px" y="0px"
	 width="1075.511px" height="793.5px" viewBox="1020 0 1075.511 793.5" enable-background="new 1020 0 1075.511 793.5"
	 xml:space="preserve">
<g>
	<rect x="1046.5" y="42.271" fill="#FFFFFF" width="230.863" height="82.729"/>
	<g>
		<polyline fill="none" stroke="#000000" stroke-miterlimit="10" points="1277.363,122 1277.363,125 1274.363,125 		"/>
		
			<line fill="none" stroke="#000000" stroke-miterlimit="10" stroke-dasharray="6.0774,6.0774" x1="1268.286" y1="125" x2="1052.539" y2="125"/>
		<polyline fill="none" stroke="#000000" stroke-miterlimit="10" points="1049.5,125 1046.5,125 1046.5,122 		"/>
		
			<line fill="none" stroke="#000000" stroke-miterlimit="10" stroke-dasharray="5.9022,5.9022" x1="1046.5" y1="116.098" x2="1046.5" y2="48.222"/>
		<polyline fill="none" stroke="#000000" stroke-miterlimit="10" points="1046.5,45.271 1046.5,42.271 1049.5,42.271 		"/>
		
			<line fill="none" stroke="#000000" stroke-miterlimit="10" stroke-dasharray="6.0774,6.0774" x1="1055.577" y1="42.271" x2="1271.324" y2="42.271"/>
		<polyline fill="none" stroke="#000000" stroke-miterlimit="10" points="1274.363,42.271 1277.363,42.271 1277.363,45.271 		"/>
		
			<line fill="none" stroke="#000000" stroke-miterlimit="10" stroke-dasharray="5.9022,5.9022" x1="1277.363" y1="51.173" x2="1277.363" y2="119.049"/>
	</g>
</g>
<rect x="1048.5" y="73.745" fill="none" width="228.863" height="21.781"/>
<text transform="matrix(1 0 0 1 1138.9512 87.4243)" font-family="'OpenSans'" font-size="18">Client</text>
<g>
	<rect x="1310.675" y="42.271" fill="#FFFFFF" width="230.863" height="82.729"/>
	<g>
		<polyline fill="none" stroke="#000000" stroke-miterlimit="10" points="1541.538,122 1541.538,125 1538.538,125 		"/>
		
			<line fill="none" stroke="#000000" stroke-miterlimit="10" stroke-dasharray="6.0774,6.0774" x1="1532.461" y1="125" x2="1316.714" y2="125"/>
		<polyline fill="none" stroke="#000000" stroke-miterlimit="10" points="1313.675,125 1310.675,125 1310.675,122 		"/>
		
			<line fill="none" stroke="#000000" stroke-miterlimit="10" stroke-dasharray="5.9022,5.9022" x1="1310.675" y1="116.097" x2="1310.675" y2="48.222"/>
		<polyline fill="none" stroke="#000000" stroke-miterlimit="10" points="1310.675,45.271 1310.675,42.271 1313.675,42.271 		"/>
		
			<line fill="none" stroke="#000000" stroke-miterlimit="10" stroke-dasharray="6.0774,6.0774" x1="1319.752" y1="42.271" x2="1535.499" y2="42.271"/>
		<polyline fill="none" stroke="#000000" stroke-miterlimit="10" points="1538.538,42.271 1541.538,42.271 1541.538,45.271 		"/>
		
			<line fill="none" stroke="#000000" stroke-miterlimit="10" stroke-dasharray="5.9022,5.9022" x1="1541.538" y1="51.173" x2="1541.538" y2="119.048"/>
	</g>
</g>
<rect x="1310.675" y="73.745" fill="none" width="230.863" height="21.781"/>
<text transform="matrix(1 0 0 1 1402.4023 87.4243)" font-family="'OpenSans'" font-size="18">Ironic</text>
<g>
	<rect x="1577.004" y="43.271" fill="#FFFFFF" width="230.863" height="82.729"/>
	<g>
		<polyline fill="none" stroke="#000000" stroke-miterlimit="10" points="1807.867,123 1807.867,126 1804.867,126 		"/>
		
			<line fill="none" stroke="#000000" stroke-miterlimit="10" stroke-dasharray="6.0774,6.0774" x1="1798.79" y1="126" x2="1583.043" y2="126"/>
		<polyline fill="none" stroke="#000000" stroke-miterlimit="10" points="1580.004,126 1577.004,126 1577.004,123 		"/>
		
			<line fill="none" stroke="#000000" stroke-miterlimit="10" stroke-dasharray="5.9022,5.9022" x1="1577.004" y1="117.097" x2="1577.004" y2="49.222"/>
		<polyline fill="none" stroke="#000000" stroke-miterlimit="10" points="1577.004,46.271 1577.004,43.271 1580.004,43.271 		"/>
		
			<line fill="none" stroke="#000000" stroke-miterlimit="10" stroke-dasharray="6.0774,6.0774" x1="1586.081" y1="43.271" x2="1801.828" y2="43.271"/>
		<polyline fill="none" stroke="#000000" stroke-miterlimit="10" points="1804.867,43.271 1807.867,43.271 1807.867,46.271 		"/>
		
			<line fill="none" stroke="#000000" stroke-miterlimit="10" stroke-dasharray="5.9022,5.9022" x1="1807.867" y1="52.173" x2="1807.867" y2="120.048"/>
	</g>
</g>
<rect x="1578.582" y="74.745" fill="none" width="230.863" height="21.781"/>
<text transform="matrix(1 0 0 1 1615.3076 88.4243)" font-family="'OpenSans'" font-size="18">Discovery Ramdisk</text>
<g>
	<rect x="1837.637" y="42.271" fill="#FFFFFF" width="230.863" height="82.729"/>
	<g>
		<polyline fill="none" stroke="#000000" stroke-miterlimit="10" points="2068.5,122 2068.5,125 2065.5,125 		"/>
		
			<line fill="none" stroke="#000000" stroke-miterlimit="10" stroke-dasharray="6.0774,6.0774" x1="2059.423" y1="125" x2="1843.676" y2="125"/>
		<polyline fill="none" stroke="#000000" stroke-miterlimit="10" points="1840.637,125 1837.637,125 1837.637,122 		"/>
		
			<line fill="none" stroke="#000000" stroke-miterlimit="10" stroke-dasharray="5.9022,5.9022" x1="1837.637" y1="116.097" x2="1837.637" y2="48.222"/>
		<polyline fill="none" stroke="#000000" stroke-miterlimit="10" points="1837.637,45.271 1837.637,42.271 1840.637,42.271 		"/>
		
			<line fill="none" stroke="#000000" stroke-miterlimit="10" stroke-dasharray="6.0774,6.0774" x1="1846.714" y1="42.271" x2="2062.461" y2="42.271"/>
		<polyline fill="none" stroke="#000000" stroke-miterlimit="10" points="2065.5,42.271 2068.5,42.271 2068.5,45.271 		"/>
		
			<line fill="none" stroke="#000000" stroke-miterlimit="10" stroke-dasharray="5.9022,5.9022" x1="2068.5" y1="51.173" x2="2068.5" y2="119.048"/>
	</g>
</g>
<rect x="1835.637" y="73.745" fill="none" width="232.863" height="21.781"/>
<text transform="matrix(1 0 0 1 1910.4697 87.4243)" font-family="'OpenSans'" font-size="18">Discoverd</text>
<g>
	<g>
		<line fill="none" stroke="#000000" stroke-width="2" stroke-miterlimit="10" x1="1161.932" y1="126" x2="1161.932" y2="132"/>
		
			<line fill="none" stroke="#000000" stroke-width="2" stroke-miterlimit="10" stroke-dasharray="12.1939,12.1939" x1="1161.932" y1="144.193" x2="1161.932" y2="723.403"/>
		<line fill="none" stroke="#000000" stroke-width="2" stroke-miterlimit="10" x1="1161.932" y1="729.5" x2="1161.932" y2="735.5"/>
	</g>
</g>
<g>
	<g>
		<line fill="none" stroke="#000000" stroke-width="2" stroke-miterlimit="10" x1="1426.106" y1="126" x2="1426.106" y2="132"/>
		
			<line fill="none" stroke="#000000" stroke-width="2" stroke-miterlimit="10" stroke-dasharray="12.1939,12.1939" x1="1426.106" y1="144.193" x2="1426.106" y2="723.403"/>
		<line fill="none" stroke="#000000" stroke-width="2" stroke-miterlimit="10" x1="1426.106" y1="729.5" x2="1426.106" y2="735.5"/>
	</g>
</g>
<g>
	<g>
		<line fill="none" stroke="#000000" stroke-width="2" stroke-miterlimit="10" x1="1692.436" y1="126" x2="1692.436" y2="132"/>
		
			<line fill="none" stroke="#000000" stroke-width="2" stroke-miterlimit="10" stroke-dasharray="12.1939,12.1939" x1="1692.436" y1="144.193" x2="1692.436" y2="723.403"/>
		<line fill="none" stroke="#000000" stroke-width="2" stroke-miterlimit="10" x1="1692.436" y1="729.5" x2="1692.436" y2="735.5"/>
	</g>
</g>
<g>
	<g>
		<line fill="none" stroke="#000000" stroke-width="2" stroke-miterlimit="10" x1="1953.068" y1="126" x2="1953.068" y2="132"/>
		
			<line fill="none" stroke="#000000" stroke-width="2" stroke-miterlimit="10" stroke-dasharray="12.1939,12.1939" x1="1953.068" y1="144.193" x2="1953.068" y2="723.403"/>
		<line fill="none" stroke="#000000" stroke-width="2" stroke-miterlimit="10" x1="1953.068" y1="729.5" x2="1953.068" y2="735.5"/>
	</g>
</g>
<rect x="1156.932" y="169.729" fill="#820E0A" stroke="#000000" stroke-width="2" stroke-linejoin="round" stroke-miterlimit="10" width="12" height="537.771"/>
<rect x="1420.106" y="169.729" fill="#820E0A" stroke="#000000" stroke-width="2" stroke-linejoin="round" stroke-miterlimit="10" width="12" height="158.771"/>
<rect x="1420.106" y="386" fill="#820E0A" stroke="#000000" stroke-width="2" stroke-linejoin="round" stroke-miterlimit="10" width="12" height="319.635"/>
<rect x="1946.068" y="612.5" fill="#820E0A" stroke="#000000" stroke-width="2" stroke-linejoin="round" stroke-miterlimit="10" width="12" height="92.089"/>
<g>
	<g>
		
			<line fill="none" stroke="#000000" stroke-width="2" stroke-linejoin="round" x1="1182.5" y1="169.729" x2="1394.43" y2="169.729"/>
		<g>
			<path d="M1406.5,169.729c-5.68,2.107-12.727,5.703-17.095,9.512l3.44-9.512l-3.44-9.51
				C1393.773,164.028,1400.82,167.624,1406.5,169.729z"/>
		</g>
	</g>
</g>
<g>
	<g>
		
			<line fill="none" stroke="#000000" stroke-width="2" stroke-linejoin="round" x1="1182.5" y1="383.729" x2="1394.43" y2="383.729"/>
		<g>
			<path d="M1406.5,383.729c-5.68,2.107-12.727,5.703-17.095,9.512l3.44-9.512l-3.44-9.509
				C1393.773,378.027,1400.82,381.623,1406.5,383.729z"/>
		</g>
	</g>
</g>
<g>
	<g>
		<line fill="none" stroke="#000000" stroke-width="2" stroke-linejoin="round" x1="1706.5" y1="612.5" x2="1918.43" y2="612.5"/>
		<g>
			<path d="M1930.5,612.5c-5.68,2.107-12.727,5.703-17.095,9.512l3.44-9.512l-3.44-9.51
				C1917.773,606.799,1924.82,610.395,1930.5,612.5z"/>
		</g>
	</g>
</g>
<rect x="1686.436" y="386" fill="#820E0A" stroke="#000000" stroke-width="2" stroke-linejoin="round" stroke-miterlimit="10" width="12" height="226.5"/>
<g>
	<g>
		<line fill="none" stroke="#000000" stroke-width="2" stroke-linejoin="round" x1="1450.436" y1="386" x2="1662.365" y2="386"/>
		<g>
			<path d="M1674.436,386c-5.68,2.107-12.727,5.703-17.095,9.512l3.44-9.512l-3.44-9.51
				C1661.709,380.299,1668.756,383.895,1674.436,386z"/>
		</g>
	</g>
</g>
<g>
	<g>
		
			<line fill="none" stroke="#000000" stroke-width="2" stroke-linejoin="round" x1="1460.506" y1="704.589" x2="1930.5" y2="704.589"/>
		<g>
			<path d="M1448.436,704.589c5.68,2.107,12.727,5.703,17.095,9.512l-3.44-9.512l3.44-9.51
				C1461.162,698.888,1454.115,702.483,1448.436,704.589z"/>
		</g>
	</g>
</g>
<rect x="1180.068" y="134.706" fill="none" width="228.863" height="33.317"/>
<text transform="matrix(1 0 0 1 1180.0684 145.3457)"><tspan x="0" y="0" font-family="'OpenSans'" font-size="14">Register nodes’</tspan><tspan x="0" y="16.8" font-family="'OpenSans'" font-size="14">power management details</tspan></text>
<rect x="1182.5" y="348.047" fill="none" width="228.863" height="33.316"/>
<text transform="matrix(1 0 0 1 1182.5 375.4868)" font-family="'OpenSans'" font-size="14">Send nodes for introspection</text>
<rect x="1448.004" y="350.047" fill="none" width="228.863" height="33.316"/>
<text transform="matrix(1 0 0 1 1448.0039 360.687)"><tspan x="0" y="0" font-family="'OpenSans'" font-size="14">Reboot nodes -&gt; PXE boot generic </tspan><tspan x="0" y="16.799" font-family="'OpenSans'" font-size="14">discovery ramdisk image</tspan></text>
<rect x="1584.004" y="669.545" fill="none" width="346.496" height="33.316"/>
<text transform="matrix(1 0 0 1 1599.0186 696.9844)" font-family="'OpenSans'" font-size="14">Facts checking and registration of hardware details</text>
<rect x="1705.068" y="579.184" fill="none" width="228.863" height="33.316"/>
<text transform="matrix(1 0 0 1 1705.0684 606.623)" font-family="'OpenSans'" font-size="14">Post hardware metrics</text>
<g>
	<g>
		
			<line fill="none" stroke="#000000" stroke-width="2" stroke-linejoin="round" x1="1192.139" y1="321.729" x2="1404.068" y2="321.729"/>
		<g>
			<path d="M1180.068,321.729c5.68,2.107,12.727,5.703,17.095,9.512l-3.44-9.512l3.44-9.51
				C1192.795,316.027,1185.748,319.623,1180.068,321.729z"/>
		</g>
	</g>
</g>
<rect x="1179.068" y="286.047" fill="none" width="228.863" height="33.316"/>
<text transform="matrix(1 0 0 1 1295.7676 313.4868)" font-family="'OpenSans'" font-size="14">Nodes registered</text>
<rect x="1258.858" y="748.158" fill="none" width="346.496" height="33.316"/>
<text transform="matrix(1 0 0 1 1341.6709 758.7988)"><tspan x="0" y="0" font-family="'OpenSans-Bold'" font-size="14">Nodes are fully registered</tspan><tspan x="-38.877" y="16.799" font-family="'OpenSans-Bold'" font-size="14">wth full stack of hardware attributes</tspan></text>
</svg>
