<?xml version="1.0" encoding="utf-8"?>
<!-- Generator: Adobe Illustrator 16.0.4, SVG Export Plug-In . SVG Version: 6.00 Build 0)  -->
<!DOCTYPE svg PUBLIC "-//W3C//DTD SVG 1.1//EN" "http://www.w3.org/Graphics/SVG/1.1/DTD/svg11.dtd">
<svg version="1.1" id="Layer_1" xmlns="http://www.w3.org/2000/svg" xmlns:xlink="http://www.w3.org/1999/xlink" x="0px" y="0px"
	 width="644.5px" height="294px" viewBox="0 0 644.5 294" enable-background="new 0 0 644.5 294" xml:space="preserve">
<path fill="#820A0E" d="M10.775,93.754L10.775,93.754c0-10.828,8.667-19.605,19.357-19.605h110.615
	c5.134,0,10.058,2.066,13.688,5.743s5.669,8.664,5.669,13.864v78.422c0,10.828-8.667,19.605-19.357,19.605H30.133l0,0
	c-10.691,0-19.357-8.777-19.357-19.605L10.775,93.754L10.775,93.754z"/>
<path fill="none" stroke="#000000" stroke-width="2" stroke-linejoin="round" stroke-miterlimit="10" d="M10.775,93.754
	L10.775,93.754c0-10.828,8.667-19.605,19.357-19.605h110.615c5.134,0,10.058,2.066,13.688,5.743s5.669,8.664,5.669,13.864v78.422
	c0,10.828-8.667,19.605-19.357,19.605H30.133l0,0c-10.691,0-19.357-8.777-19.357-19.605L10.775,93.754L10.775,93.754z"/>
<path fill-opacity="0" d="M299.077,53.848L299.077,53.848c0-21.85,17.485-39.562,39.058-39.562h255.822
	c10.358,0,20.293,4.167,27.618,11.587c7.325,7.417,11.438,17.481,11.438,27.973v158.235c0,21.85-17.485,39.562-39.058,39.562
	H338.135c-21.57,0-39.058-17.712-39.058-39.562V53.848L299.077,53.848z"/>
<path fill="#DDDDDD" stroke="#000000" stroke-width="2" stroke-linejoin="round" stroke-miterlimit="10" d="M299.077,53.848
	L299.077,53.848c0-21.85,17.485-39.562,39.058-39.562h255.822c10.358,0,20.293,4.167,27.618,11.587
	c7.325,7.417,11.438,17.481,11.438,27.973v158.235c0,21.85-17.485,39.562-39.058,39.562H338.135
	c-21.57,0-39.058-17.712-39.058-39.562V53.848L299.077,53.848z"/>
<path fill-opacity="0" d="M160.105,132.965h138.972"/>
<path fill="none" stroke="#000000" stroke-width="2" stroke-linejoin="round" stroke-miterlimit="10" d="M160.105,132.965h127.253"
	/>
<path stroke="#000000" stroke-width="2" stroke-miterlimit="10" d="M287.358,136.233l8.864-3.269l-8.864-3.268V136.233z"/>
<path fill-opacity="0" d="M180.854,79.397h97.472v92.433h-97.472V79.397z"/>
<rect x="17.44" y="125.359" fill="none" width="139" height="16.712"/>
<text transform="matrix(0.9873 0 0 1 26.0718 139.2148)" fill="#FFFFFF" font-family="'OpenSans-Semibold'" font-size="18.2314">RDO-Manager</text>
<rect x="329.94" y="125.359" fill="none" width="261" height="16.712"/>
<text transform="matrix(0.9873 0 0 1 335.8867 139.2148)" font-family="'OpenSans-Semibold'" font-size="18.2314">Production OpenStack Cloud</text>
<rect x="160.105" y="80.287" fill="none" width="138.972" height="106.856"/>
<text transform="matrix(0.9873 0 0 1 202.6709 91.0645)" font-family="'OpenSans-Semibold'" font-size="14.18">Deploys</text>
<text transform="matrix(0.9873 0 0 1 201.4199 108.0801)" font-family="'OpenSans-Semibold'" font-size="14.18">Updates</text>
<text transform="matrix(0.9873 0 0 1 199.0068 125.0957)" font-family="'OpenSans-Semibold'" font-size="14.18">Monitors</text>
</svg>
